Coordinates
version=1
nRows=13
nColumns=40
inDegrees=yes
endheader
time	pelvis_tilt	pelvis_list	pelvis_rotation	pelvis_tx	pelvis_ty	pelvis_tz	hip_flexion_r	hip_adduction_r	hip_rotation_r	knee_angle_r	knee_angle_r_beta	ankle_angle_r	subtalar_angle_r	mtp_angle_r	hip_flexion_l	hip_adduction_l	hip_rotation_l	knee_angle_l	knee_angle_l_beta	ankle_angle_l	subtalar_angle_l	mtp_angle_l	lumbar_extension	lumbar_bending	lumbar_rotation	arm_flex_r	arm_add_r	arm_rot_r	elbow_flex_r	pro_sup_r	wrist_flex_r	wrist_dev_r	arm_flex_l	arm_add_l	arm_rot_l	elbow_flex_l	pro_sup_l	wrist_flex_l	wrist_dev_l
1760624801.76900005	      5.10193616	      0.10622729	      3.17741152	      0.05516903	      0.95134303	     -0.00146541	     80.00000000	     -7.00000000	      0.00000000	     80.00000000	      1.39626340	      0.00000000	      0.00000000	      0.00000000	     80.00000000	     -7.00000000	      0.00000000	     80.00000000	      1.39626340	      0.00000000	      0.00000000	      0.00000000	     -4.83324936	      0.07983888	      3.62665409	      3.24197453	     -6.65955325	     -3.43486213	      8.15095920	      8.56464462	      7.99504546	      0.22030919	      3.20870019	     -1.23460941	      6.11642050	      2.79277722	      0.00000000	      4.60131082	      0.29692016
1760624801.80299997	      5.00328737	      0.11439167	      3.18048081	      0.05304112	      0.95107917	     -0.00197391	     80.00000000	     -7.00000000	      0.00000000	     80.00000000	      1.39626340	      0.00000000	      0.00000000	      0.00000000	     80.00000000	     -7.00000000	      0.00000000	     80.00000000	      1.39626340	      0.00000000	      0.00000000	      0.00000000	     -4.73579017	      0.07515407	      3.64173733	      3.21396340	     -6.69020330	     -3.64479209	      8.14936237	      8.71555287	      8.01987990	      0.18317418	      3.11835626	     -1.17940328	      6.17708090	      3.86420381	      0.00000000	      4.41608013	      0.26141154
1760624801.86899996	      4.89008092	      0.12996335	      3.16844735	      0.04946124	      0.95079891	     -0.00259187	     80.00000000	     -7.00000000	      0.00000000	     80.00000000	      1.39626340	      0.00000000	      0.00000000	      0.00000000	     80.00000000	     -7.00000000	      0.00000000	     80.00000000	      1.39626340	      0.00000000	      0.00000000	      0.00000000	     -4.53734676	      0.05037385	      3.76784826	      3.15485275	     -6.73367682	     -3.97902667	      8.29304434	      8.99262370	      7.93998867	      0.15873980	      2.79979716	     -1.27080833	      5.95349831	      7.38331984	      0.00000000	      4.04413941	      0.33294992
1760624801.90300012	      4.74751371	      0.15548875	      3.16934554	      0.04541330	      0.95018028	     -0.00299918	     80.00000000	     -7.00000000	      0.00000000	     80.00000000	      1.39626340	      0.00000000	      0.00000000	      0.00000000	     80.00000000	     -7.00000000	      0.00000000	     80.00000000	      1.39626340	      0.00000000	      0.00000000	      0.00000000	     -4.32322385	      0.04325239	      3.91650884	      3.06370177	     -6.78619595	     -4.27081646	      8.43188129	      9.32579728	      7.91585676	      0.14300626	      2.39512166	     -1.35605623	      5.38726597	     11.64583747	      0.00000000	      3.65713902	      0.39363537
1760624801.93600011	      4.61661078	      0.17139765	      3.14595531	      0.04121330	      0.94930070	     -0.00300595	     80.00000000	     -7.00000000	      0.00000000	     80.00000000	      1.39626340	      0.00000000	      0.00000000	      0.00000000	     80.00000000	     -7.00000000	      0.00000000	     80.00000000	      1.39626340	      0.00000000	      0.00000000	      0.00000000	     -4.10956232	      0.03011339	      4.13016141	      2.99620276	     -6.83901213	     -4.51498531	      8.63244906	      9.57730104	      7.72401011	      0.13671396	      2.06116606	     -1.46461244	      4.86163460	     15.73526654	      0.00000000	      3.33904664	      0.63697771
1760624801.97000003	      4.54397736	      0.19122558	      3.15142284	      0.03692655	      0.94848302	     -0.00334192	     80.00000000	     -7.00000000	      0.00000000	     80.00000000	      1.39626340	      0.00000000	      0.00000000	      0.00000000	     80.00000000	     -7.00000000	      0.00000000	     80.00000000	      1.39626340	      0.00000000	      0.00000000	      0.00000000	     -3.88731537	      0.01537315	      4.35652826	      2.84027898	     -6.89464025	     -4.84363950	      8.88954814	      9.76613146	      7.58409585	      0.13053318	      1.78980865	     -1.58301136	      4.44462123	     20.26366186	      0.00000000	      2.93105004	      0.99085532
1760624802.00300002	      4.38245284	      0.22650452	      3.15027315	      0.03038877	      0.94688801	     -0.00457702	     80.00000000	     -7.00000000	      0.00000000	     80.00000000	      1.39626340	      0.00000000	      0.00000000	      0.00000000	     80.00000000	     -7.00000000	      0.00000000	     80.00000000	      1.39626340	      0.00000000	      0.00000000	      0.00000000	     -3.67662624	      0.00325880	      4.63228464	      2.75874296	     -6.96311158	     -5.15423196	      9.25745579	      9.99954517	      7.37335305	      0.06038471	      1.68860789	     -1.66527911	      4.05093678	     26.93109578	      0.00000000	      2.22802202	      1.28503004
1760624802.03699994	      4.31078252	      0.25317561	      3.15584405	      0.02502903	      0.94561477	     -0.00565629	     80.00000000	     -7.00000000	      0.00000000	     80.00000000	      1.39626340	      0.00000000	      0.00000000	      0.00000000	     80.00000000	     -7.00000000	      0.00000000	     80.00000000	      1.39626340	      0.00000000	      0.00000000	      0.00000000	     -3.53449183	     -0.00684241	      4.77549008	      2.68744449	     -7.02135408	     -5.27264875	      9.56721239	     10.16949365	      7.15569563	      0.00658857	      1.60335952	     -1.71298218	      3.89753023	     32.43303468	      0.00000000	      1.70507611	      1.54331945
1760624802.06999993	      4.24681454	      0.29204954	      3.16469720	      0.01980890	      0.94395479	     -0.00689246	     80.00000000	     -7.00000000	      0.00000000	     80.00000000	      1.39626340	      0.00000000	      0.00000000	      0.00000000	     80.00000000	     -7.00000000	      0.00000000	     80.00000000	      1.39626340	      0.00000000	      0.00000000	      0.00000000	     -3.37945995	     -0.05401812	      4.84439627	      2.60799746	     -7.09176496	     -5.38777045	      9.74293859	     10.31214806	      7.05575981	     -0.02311366	      1.50605547	     -1.82342624	      3.71828804	     38.40759677	      0.00000000	      1.14902764	      1.93895799
1760624802.10400009	      4.04135686	      0.34260223	      3.15713805	      0.01441793	      0.94112295	     -0.00873529	     80.00000000	     -7.00000000	      0.00000000	     80.00000000	      1.39626340	      0.00000000	      0.00000000	      0.00000000	     80.00000000	     -7.00000000	      0.00000000	     80.00000000	      1.39626340	      0.00000000	      0.00000000	      0.00000000	     -3.03179851	     -0.19259967	      4.92971132	      2.49918873	     -7.07764951	     -5.47365195	      9.87531790	     10.33002165	      6.92869651	     -0.04333032	      1.28612282	     -2.03677684	      3.60517733	     47.06862135	      0.00000000	      0.35967590	      2.66529435
1760624802.13700008	      3.99747273	      0.36394544	      3.15657671	      0.01252976	      0.94010073	     -0.00962319	     80.00000000	     -7.00000000	      0.00000000	     80.00000000	      1.39626340	      0.00000000	      0.00000000	      0.00000000	     80.00000000	     -7.00000000	      0.00000000	     80.00000000	      1.39626340	      0.00000000	      0.00000000	      0.00000000	     -2.91965535	     -0.26383413	      4.90619789	      2.42563207	     -7.08803420	     -5.49095424	      9.94521059	     10.36570093	      6.92064728	     -0.05973902	      1.24065184	     -2.19700040	      3.64328576	     53.83050952	      0.00000000	     -0.01469857	      3.22880613
1760624802.17100000	      4.21249742	      0.41386738	      3.15079662	      0.01751561	      0.94040797	     -0.00994836	     80.00000000	     -7.00000000	      0.00000000	     80.00000000	      1.39626340	      0.00000000	      0.00000000	      0.00000000	     80.00000000	     -7.00000000	      0.00000000	     80.00000000	      1.39626340	      0.00000000	      0.00000000	      0.00000000	     -3.21909422	     -0.36866802	      4.70637451	      2.47993784	     -7.03304578	     -5.33704049	      9.73816388	     10.43358046	      7.14071944	     -0.06208696	      1.63396233	     -2.45138564	      3.72873905	     60.45115615	      0.00000000	     -0.03608471	      3.83328683
1760624802.20400000	      4.28481415	      0.48619182	      3.11247431	      0.02189286	      0.93680117	     -0.01034939	     80.00000000	     -7.00000000	      0.00000000	     80.00000000	      1.39626340	      0.00000000	      0.00000000	      0.00000000	     80.00000000	     -7.00000000	      0.00000000	     80.00000000	      1.39626340	      0.00000000	      0.00000000	      0.00000000	     -3.22333447	     -0.65887009	      4.57618221	      2.45705648	     -6.87187769	     -5.28393983	      9.86991095	     10.48342569	      7.17855111	     -0.06455523	      1.84319747	     -3.03794028	      4.13483734	     69.28561601	      0.00000000	     -0.26661326	      4.66398701
